<svg xmlns="http://www.w3.org/2000/svg" viewBox="0 0 990 700" width="990" height="700">
<style>
.fig-node-label { font-family: Arial, Helvetica, sans-serif; font-size: 13px; fill: #1e293b; text-anchor: middle; dominant-baseline: central; pointer-events: none; }
.fig-edge-label { font-family: Arial, Helvetica, sans-serif; font-size: 11px; fill: #475569; text-anchor: middle; dominant-baseline: central; }
.fig-edge-label-bg { fill: #ffffff; fill-opacity: 0.85; }
.fig-group-label { font-family: Arial, Helvetica, sans-serif; font-size: 12px; fill: #64748b; font-weight: bold; }
.fig-title { font-family: Arial, Helvetica, sans-serif; font-size: 20px; fill: #0f172a; text-anchor: middle; font-weight: bold; }
.fig-legend-text { font-family: Arial, Helvetica, sans-serif; font-size: 10px; fill: #475569; }
</style>
<defs>
<marker id="arrow-forward" markerWidth="10" markerHeight="7" refX="9" refY="3.5" orient="auto" markerUnits="strokeWidth"><polygon points="0 0, 10 3.5, 0 7" fill="#475569"/></marker>
<marker id="arrow-backward" markerWidth="10" markerHeight="7" refX="1" refY="3.5" orient="auto" markerUnits="strokeWidth"><polygon points="10 0, 0 3.5, 10 7" fill="#475569"/></marker>
<marker id="arrow-dashed" markerWidth="10" markerHeight="7" refX="9" refY="3.5" orient="auto" markerUnits="strokeWidth"><polygon points="0 0, 10 3.5, 0 7" fill="#94a3b8"/></marker>
</defs>
<text x="495.0" y="55.0" class="fig-title">Computational Drug Discovery Pipeline</text>
<!-- group: Discovery Phase -->
<g id="group-discovery-phase">
<rect x="60" y="110" width="860" height="115" rx="12" fill="#eff6ff" fill-opacity="0.4" stroke="#cbd5e1" stroke-width="1.5" stroke-dasharray="8,4"/>
<text x="72" y="128" class="fig-group-label">Discovery Phase</text>
</g>
<!-- group: Clinical Development Phase -->
<g id="group-clinical-development-phase">
<rect x="60" y="290" width="870" height="115" rx="12" fill="#fef2f2" fill-opacity="0.4" stroke="#cbd5e1" stroke-width="1.5" stroke-dasharray="8,4"/>
<text x="72" y="308" class="fig-group-label">Clinical Development Phase</text>
</g>
<!-- edge: n1 -> n2 -->
<g id="edge-n1-n2">
<path d="M 195.0 165.0 L 245.0 165.0" fill="none" stroke="#475569" stroke-width="2" stroke-dasharray="none" marker-start="none" marker-end="url(#arrow-forward)"/>
</g>
<!-- edge: n2 -> n3 -->
<g id="edge-n2-n3">
<path d="M 385.0 165.0 L 435.0 165.0" fill="none" stroke="#475569" stroke-width="2" stroke-dasharray="none" marker-start="none" marker-end="url(#arrow-forward)"/>
</g>
<!-- edge: n3 -> n4 -->
<g id="edge-n3-n4">
<path d="M 565.0 165.0 L 615.0 165.0" fill="none" stroke="#475569" stroke-width="2" stroke-dasharray="none" marker-start="none" marker-end="url(#arrow-forward)"/>
</g>
<!-- edge: n4 -> n5 -->
<g id="edge-n4-n5">
<path d="M 735.0 165.0 L 785.0 165.0" fill="none" stroke="#475569" stroke-width="2" stroke-dasharray="none" marker-start="none" marker-end="url(#arrow-forward)"/>
</g>
<!-- edge: n5 -> n6 -->
<g id="edge-n5-n6">
<path d="M 785.0 180.2 L 195.0 329.8" fill="none" stroke="#475569" stroke-width="2" stroke-dasharray="none" marker-start="none" marker-end="url(#arrow-forward)"/>
<rect x="470.0" y="246.0" width="40" height="18" class="fig-edge-label-bg" rx="3"/>
<text x="490.0" y="255.0" class="fig-edge-label">IND</text>
</g>
<!-- edge: n6 -> n7 -->
<g id="edge-n6-n7">
<path d="M 195.0 345.0 L 245.0 345.0" fill="none" stroke="#475569" stroke-width="2" stroke-dasharray="none" marker-start="none" marker-end="url(#arrow-forward)"/>
</g>
<!-- edge: n7 -> n8 -->
<g id="edge-n7-n8">
<path d="M 365.0 345.0 L 415.0 345.0" fill="none" stroke="#475569" stroke-width="2" stroke-dasharray="none" marker-start="none" marker-end="url(#arrow-forward)"/>
</g>
<!-- edge: n8 -> n9 -->
<g id="edge-n8-n9">
<path d="M 535.0 345.0 L 600.0 345.0" fill="none" stroke="#475569" stroke-width="2" stroke-dasharray="none" marker-start="none" marker-end="url(#arrow-forward)"/>
<rect x="538.0" y="336.0" width="59" height="18" class="fig-edge-label-bg" rx="3"/>
<text x="567.5" y="345.0" class="fig-edge-label">NDA/BLA</text>
</g>
<!-- edge: n9 -> n10 -->
<g id="edge-n9-n10">
<path d="M 740.0 345.0 L 795.0 345.0" fill="none" stroke="#475569" stroke-width="2" stroke-dasharray="none" marker-start="none" marker-end="url(#arrow-forward)"/>
<rect x="734.5" y="336.0" width="66" height="18" class="fig-edge-label-bg" rx="3"/>
<text x="767.5" y="345.0" class="fig-edge-label">Approved</text>
</g>
<!-- edge: n9 -> n3 -->
<g id="edge-n9-n3">
<path d="M 632.2 305.0 L 528.3 195.0" fill="none" stroke="#94a3b8" stroke-width="2" stroke-dasharray="8,4" marker-start="none" marker-end="url(#arrow-dashed)"/>
<rect x="547.2777777777778" y="241.0" width="66" height="18" class="fig-edge-label-bg" rx="3"/>
<text x="580.2777777777778" y="250.0" class="fig-edge-label">Rejected</text>
</g>
<!-- node: n1 -->
<g id="node-n1">
<rect x="75" y="135" width="120" height="60" rx="8" ry="8" fill="#dbeafe" stroke="#1e40af" stroke-width="2"/>
<text x="135.0" y="165.0" class="fig-node-label">Target
Identification</text>
</g>
<!-- node: n2 -->
<g id="node-n2">
<rect x="245" y="135" width="140" height="60" rx="8" ry="8" fill="#dcfce7" stroke="#1e40af" stroke-width="2"/>
<text x="315.0" y="157.5" class="fig-node-label">Hit Discovery
(HTS/Virtual</text>
<text x="315.0" y="172.5" class="fig-node-label">Screen)</text>
</g>
<!-- node: n3 -->
<g id="node-n3">
<rect x="435" y="135" width="130" height="60" rx="8" ry="8" fill="#fef3c7" stroke="#1e40af" stroke-width="2"/>
<text x="500.0" y="165.0" class="fig-node-label">Hit-to-Lead
Optimization</text>
</g>
<!-- node: n4 -->
<g id="node-n4">
<rect x="615" y="135" width="120" height="60" rx="8" ry="8" fill="#f3e8ff" stroke="#1e40af" stroke-width="2"/>
<text x="675.0" y="165.0" class="fig-node-label">Lead
Optimization</text>
</g>
<!-- node: n5 -->
<g id="node-n5">
<rect x="785" y="135" width="120" height="60" rx="8" ry="8" fill="#fef2f2" stroke="#1e40af" stroke-width="2"/>
<text x="845.0" y="165.0" class="fig-node-label">Preclinical
Testing</text>
</g>
<!-- node: n6 -->
<g id="node-n6">
<rect x="75" y="315" width="120" height="60" rx="8" ry="8" fill="#e8f4fd" stroke="#1e40af" stroke-width="2"/>
<text x="135.0" y="345.0" class="fig-node-label">Phase I
Clinical Trial</text>
</g>
<!-- node: n7 -->
<g id="node-n7">
<rect x="245" y="315" width="120" height="60" rx="8" ry="8" fill="#e8f4fd" stroke="#1e40af" stroke-width="2"/>
<text x="305.0" y="345.0" class="fig-node-label">Phase II
Clinical Trial</text>
</g>
<!-- node: n8 -->
<g id="node-n8">
<rect x="415" y="315" width="120" height="60" rx="8" ry="8" fill="#e8f4fd" stroke="#1e40af" stroke-width="2"/>
<text x="475.0" y="345.0" class="fig-node-label">Phase III
Clinical Trial</text>
</g>
<!-- node: n9 -->
<g id="node-n9">
<polygon points="670.0,305 740,345.0 670.0,385 600,345.0" fill="#fef3c7" stroke="#1e40af" stroke-width="2"/>
<text x="670.0" y="345.0" class="fig-node-label">FDA/EMA
Review &amp; Approval</text>
</g>
<!-- node: n10 -->
<g id="node-n10">
<rect x="795" y="315" width="120" height="60" rx="8" ry="8" fill="#dcfce7" stroke="#1e40af" stroke-width="2"/>
<text x="855.0" y="345.0" class="fig-node-label">Phase IV
Post-Market</text>
</g>
<g id="legend">
<rect x="295.0" y="669" width="18" height="12" rx="0" ry="0" fill="#e2e8f0" stroke="#94a3b8" stroke-width="2"/>
<text x="317.0" y="675" class="fig-legend-text">Box</text>
<rect x="357.0" y="669" width="18" height="12" rx="8" ry="8" fill="#e2e8f0" stroke="#94a3b8" stroke-width="2"/>
<text x="379.0" y="675" class="fig-legend-text">Rounded</text>
<path d="M 419.0 677 L 419.0 673 A 9.0 8 0 0 0 437.0 673 L 437.0 677 Z" fill="#e2e8f0" stroke="#94a3b8" stroke-width="2"/>
<ellipse cx="428.0" cy="677" rx="9.0" ry="8" fill="#e2e8f0" stroke="#94a3b8" stroke-width="2"/>
<path d="M 419.0 673 A 9.0 8 0 0 0 437.0 673" fill="none" stroke="#94a3b8" stroke-width="2" stroke-dasharray="4,3"/>
<path d="M 419.0 677 A 9.0 8 0 0 0 437.0 677" fill="none" stroke="#94a3b8" stroke-width="2"/>
<text x="441.0" y="675" class="fig-legend-text">Cylinder</text>
<polygon points="490.0,669 499.0,675.0 490.0,681 481.0,675.0" fill="#e2e8f0" stroke="#94a3b8" stroke-width="2"/>
<text x="503.0" y="675" class="fig-legend-text">Diamond</text>
<ellipse cx="552.0" cy="675.0" rx="9.0" ry="6.0" fill="#e2e8f0" stroke="#94a3b8" stroke-width="2"/>
<text x="565.0" y="675" class="fig-legend-text">Circle</text>
<polygon points="607.7,669 623.0,669 620.3,681 605.0,681" fill="#e2e8f0" stroke="#94a3b8" stroke-width="2"/>
<text x="627.0" y="675" class="fig-legend-text">Para.</text>
<polygon points="676.00,669.00 677.41,673.06 681.71,673.15 678.28,675.74 679.53,679.85 676.00,677.40 672.47,679.85 673.72,675.74 670.29,673.15 674.59,673.06" fill="#e2e8f0" stroke="#94a3b8" stroke-width="2"/>
<text x="689.0" y="675" class="fig-legend-text">Star</text>
</g>
</svg>